<svg width="28" height="28" viewBox="0 0 28 28" fill="none" xmlns="http://www.w3.org/2000/svg">
<path d="M25.6974 0H1.50123C0.672689 0 0 0.671345 0 1.50123V25.6974C0 26.5273 0.672689 27.1996 1.50123 27.1996H14.5278V16.6663H10.9834V12.5607H14.5278V9.5332C14.5278 6.02061 16.6726 4.1069 19.8067 4.1069C21.3093 4.1069 22.5978 4.21931 22.9735 4.26813V7.9397L20.7996 7.9406C19.0955 7.9406 18.7668 8.75078 18.7668 9.93896V12.5594H22.8325L22.3009 16.6645H18.7663V27.1982H25.697C26.5264 27.1982 27.1996 26.5251 27.1996 25.6974V1.50034C27.1991 0.671346 26.5269 0 25.6974 0Z" fill="#7B66AA"/>
</svg>
