<svg width="28" height="28" viewBox="0 0 28 28" fill="none" xmlns="http://www.w3.org/2000/svg">
<path d="M25.2577 0.107422H3.42837C1.92761 0.107422 0.699707 1.33532 0.699707 2.83609V24.6654C0.699707 26.1662 1.92761 27.3941 3.42837 27.3941H25.2577C26.7585 27.3941 27.9864 26.1662 27.9864 24.6654V2.83609C27.9864 1.33532 26.7585 0.107422 25.2577 0.107422ZM14.343 8.29342C17.3446 8.29342 19.8004 10.7492 19.8004 13.7508C19.8004 16.7523 17.3446 19.2081 14.343 19.2081C11.3415 19.2081 8.88571 16.7523 8.88571 13.7508C8.88571 10.7492 11.3415 8.29342 14.343 8.29342ZM4.11054 24.6654C3.70124 24.6654 3.42837 24.3926 3.42837 23.9833V12.3864H6.29347C6.15704 12.7957 6.15704 13.3415 6.15704 13.7508C6.15704 18.2531 9.84074 21.9368 14.343 21.9368C18.8453 21.9368 22.529 18.2531 22.529 13.7508C22.529 13.3415 22.529 12.7957 22.3926 12.3864H25.2577V23.9833C25.2577 24.3926 24.9848 24.6654 24.5755 24.6654H4.11054ZM25.2577 6.24692C25.2577 6.65622 24.9848 6.92909 24.5755 6.92909H21.8469C21.4376 6.92909 21.1647 6.65622 21.1647 6.24692V3.51825C21.1647 3.10895 21.4376 2.83609 21.8469 2.83609H24.5755C24.9848 2.83609 25.2577 3.10895 25.2577 3.51825V6.24692Z" fill="#D23E8C"/>
</svg>
