<svg width="28" height="28" viewBox="0 0 28 28" fill="none" xmlns="http://www.w3.org/2000/svg">
<path d="M25.9043 0H2.46198C1.3708 0 0.486328 0.884476 0.486328 1.97565V25.418C0.486328 26.5092 1.3708 27.3937 2.46198 27.3937H25.9043C26.9955 27.3937 27.88 26.5092 27.88 25.418V1.97565C27.88 0.884476 26.9955 0 25.9043 0V0ZM22.3861 18.1192C22.2874 18.3491 21.844 18.6758 20.2928 18.9153C20.1657 18.9347 20.1166 19.1 20.0409 19.4463C20.0133 19.5724 19.9855 19.6963 19.9473 19.8265C19.9143 19.9394 19.8438 19.9922 19.7253 19.9922H19.7061C19.6238 19.9922 19.5072 19.9774 19.359 19.9484C19.0963 19.8972 18.8018 19.8499 18.4271 19.8499C18.2082 19.8499 17.9819 19.8687 17.7543 19.9063C17.2889 19.9841 16.8936 20.2629 16.4752 20.5588C15.8673 20.989 15.2396 21.4327 14.2613 21.4327C14.2187 21.4327 14.1771 21.4312 14.1351 21.4293C14.1083 21.4316 14.0805 21.4327 14.0527 21.4327C13.0749 21.4327 12.4472 20.9892 11.8403 20.5597C11.4213 20.2637 11.0256 19.9841 10.5596 19.9063C10.3322 19.8687 10.1058 19.8499 9.88744 19.8499C9.49306 19.8499 9.18249 19.9107 8.95531 19.955C8.81758 19.982 8.69845 20.0052 8.60795 20.0052C8.51349 20.0052 8.41129 19.9847 8.36677 19.8328C8.32811 19.7009 8.30031 19.5736 8.27314 19.4499C8.20375 19.1326 8.15464 18.9374 8.02172 18.917C6.47075 18.6774 6.02663 18.3506 5.92778 18.1188C5.91398 18.0858 5.90562 18.0523 5.90395 18.0197C5.89893 17.9305 5.96184 17.8517 6.05004 17.8375C8.43407 17.445 9.5033 15.0079 9.54782 14.9044C9.54886 14.9019 9.55011 14.899 9.55158 14.8963C9.69746 14.6005 9.72588 14.3437 9.63685 14.1332C9.4732 13.7478 8.93942 13.5783 8.58622 13.4663C8.4999 13.4387 8.41798 13.413 8.35319 13.3873C7.64824 13.1087 7.58972 12.8228 7.61752 12.6771C7.66475 12.4286 7.99664 12.2554 8.2652 12.2554C8.33856 12.2554 8.40335 12.2685 8.4579 12.294C8.77515 12.4424 9.06085 12.5179 9.30768 12.5179C9.64834 12.5179 9.79715 12.3747 9.81533 12.3559C9.80634 12.1946 9.79569 12.0259 9.78482 11.8518C9.71376 10.7249 9.62556 9.32399 9.98253 8.52457C11.0513 6.12821 13.3177 5.94179 13.9871 5.94179C14.0043 5.94179 14.2806 5.93886 14.2806 5.93886H14.3201C14.9907 5.93886 17.2625 6.12529 18.3318 8.52311C18.6885 9.32294 18.6003 10.7249 18.5293 11.8512L18.5261 11.9003C18.5163 12.057 18.5067 12.2094 18.4987 12.3555C18.5159 12.373 18.6528 12.5045 18.9615 12.5164H18.9617C19.1968 12.5074 19.4664 12.4324 19.7625 12.294C19.8491 12.2533 19.9456 12.2447 20.011 12.2447C20.1116 12.2447 20.2129 12.2644 20.2972 12.2993L20.3026 12.3016C20.5419 12.3864 20.6989 12.554 20.7022 12.7296C20.7053 12.8947 20.5791 13.143 19.9609 13.3873C19.8967 13.4126 19.8148 13.4385 19.7279 13.4661C19.3742 13.5781 18.8409 13.7478 18.6772 14.133C18.588 14.3437 18.6164 14.6001 18.7625 14.8959C18.7638 14.8988 18.7652 14.9015 18.7665 14.9044C18.8108 15.0079 19.8787 17.4442 22.2642 17.8373C22.3522 17.8517 22.4153 17.9305 22.4103 18.0193C22.4085 18.0528 22.4003 18.0864 22.3861 18.1192Z" fill="#D23E8C"/>
</svg>
