<svg width="28" height="28" viewBox="0 0 28 28" fill="none" xmlns="http://www.w3.org/2000/svg">
<path d="M25.7984 0H2.35602C1.26485 0 0.380371 0.884476 0.380371 1.97565V25.418C0.380371 26.5092 1.26485 27.3937 2.35602 27.3937H25.7984C26.8896 27.3937 27.774 26.5092 27.774 25.418V1.97565C27.774 0.884476 26.8896 0 25.7984 0V0ZM20.331 10.6793C20.3371 10.8141 20.34 10.9496 20.34 11.0856C20.34 15.2399 17.1779 20.0303 11.3951 20.0305H11.3954H11.3951C9.61971 20.0305 7.96759 19.5101 6.5763 18.6183C6.82229 18.6473 7.07267 18.6618 7.32618 18.6618C8.79919 18.6618 10.1547 18.1593 11.2309 17.316C9.85463 17.2905 8.69428 16.3816 8.29384 15.1324C8.48549 15.1692 8.68257 15.1893 8.88467 15.1893C9.17163 15.1893 9.44959 15.1506 9.71376 15.0785C8.27524 14.7905 7.19159 13.5192 7.19159 11.9969C7.19159 11.9826 7.19159 11.9699 7.192 11.9567C7.61564 12.1923 8.1001 12.334 8.6159 12.3498C7.77176 11.7866 7.21688 10.8238 7.21688 9.733C7.21688 9.157 7.37258 8.61737 7.6426 8.15277C9.19294 10.0551 11.5099 11.3061 14.1228 11.4376C14.0688 11.2073 14.041 10.9673 14.041 10.7207C14.041 8.9852 15.4491 7.57719 17.1852 7.57719C18.0895 7.57719 18.9063 7.95945 19.48 8.57055C20.1962 8.42927 20.8688 8.16761 21.4763 7.8075C21.2412 8.54129 20.743 9.157 20.0938 9.54636C20.7298 9.47029 21.3359 9.30162 21.8991 9.05125C21.4784 9.68179 20.9448 10.2356 20.331 10.6793Z" fill="#7B66AA"/>
</svg>
