<svg width="28" height="28" viewBox="0 0 28 28" fill="none" xmlns="http://www.w3.org/2000/svg">
<path d="M12.2646 16.263L16.72 13.6969L12.2646 11.1309V16.263Z" fill="#7B66AA"/>
<path d="M25.6919 0H2.24958C1.1584 0 0.273926 0.884476 0.273926 1.97565V25.418C0.273926 26.5092 1.1584 27.3937 2.24958 27.3937H25.6919C26.7831 27.3937 27.6676 26.5092 27.6676 25.418V1.97565C27.6676 0.884476 26.7831 0 25.6919 0V0ZM22.5292 13.7108C22.5292 13.7108 22.5292 16.4886 22.1768 17.8281C21.9793 18.5612 21.4012 19.1393 20.6681 19.3366C19.3286 19.6892 13.9708 19.6892 13.9708 19.6892C13.9708 19.6892 8.62691 19.6892 7.27345 19.3226C6.54029 19.1253 5.9622 18.547 5.7647 17.8139C5.41212 16.4886 5.41212 13.6968 5.41212 13.6968C5.41212 13.6968 5.41212 10.9193 5.7647 9.5798C5.96199 8.84664 6.55429 8.25434 7.27345 8.05705C8.61291 7.70447 13.9708 7.70447 13.9708 7.70447C13.9708 7.70447 19.3286 7.70447 20.6681 8.07105C21.4012 8.26834 21.9793 8.84664 22.1768 9.5798C22.5434 10.9193 22.5292 13.7108 22.5292 13.7108Z" fill="#7B66AA"/>
</svg>
